# File created by Blade
# Date/Time:  Tue Apr 07 21:12:38 2015
# Frame Rate: 120.000 fps
#------------------------------------------------------
:FULLY-SPECIFIED
:DEGREES
718
root 21.205293 25.305887 8.869418 722.826420 -85.244107 -613.973116
Spine 38.635292 -4.852533 -5.089061
Head -56.310880 3.954413 9.815619
LeftShoulder -2.983859 2.733706 44.976621
LeftArm 150.013029 -34.150012 -135.067620
LeftForeArm 23.882779 -0.000000 99.664405
LeftHand -5.803031 -0.000000 -5.544945
LeftHandThumb1 -26.253704 0.000000 33.147579
RightShoulder -8.022581 58.643771 -48.981927
RightArm 76.594039 46.982521 103.642000
RightForeArm -23.763339 -0.000000 109.911437
RightHand -4.291355 -0.000000 15.672156
RightHandThumb1 -24.326973 -0.000000 -32.862282
LeftUpLeg -81.537667 -15.048130 8.116275
LeftLeg 35.447770 -0.000000 -0.000000
LeftFoot -6.567071 25.680899 35.490599
LeftToeBase 115.342107 -0.000000 -0.000000
RightUpLeg -116.424888 -1.191747 13.451016
RightLeg 79.833242 -0.000000 -0.000000
RightFoot -35.342265 -4.048545 9.358416
RightToeBase -42.111494 -0.000000 0.000000
719
root 21.174129 25.343700 8.844752 724.145041 -85.186522 -615.171208
Spine 38.613777 -4.971626 -5.026503
Head -56.203074 4.063832 9.807884
LeftShoulder -3.043375 3.021992 44.965235
LeftArm 150.261632 -33.986497 -135.240550
LeftForeArm 23.977699 0.000000 99.620812
LeftHand -5.809649 0.000000 -5.369609
LeftHandThumb1 -26.253704 0.000000 33.147579
RightShoulder -7.973839 58.689074 -49.101816
RightArm 76.630775 47.091172 103.741481
RightForeArm -23.892513 -0.000000 109.994262
RightHand -4.333181 0.000000 15.670485
RightHandThumb1 -24.326973 -0.000000 -32.862282
LeftUpLeg -81.418325 -15.221521 8.599325
LeftLeg 34.777584 -0.000000 -0.000000
LeftFoot -6.366134 25.910126 35.120194
LeftToeBase 115.781304 -0.000000 -0.000000
RightUpLeg -116.321735 -1.124735 13.411093
RightLeg 79.444081 -0.000000 -0.000000
RightFoot -35.408831 -4.238718 9.494248
RightToeBase -41.854093 -0.000000 0.000000
720
root 21.132793 25.381861 8.817399 725.539452 -85.145228 -616.500431
Spine 38.693586 -5.019044 -4.944434
Head -56.199262 4.142029 9.803001
LeftShoulder -3.126448 3.208231 44.981223
LeftArm 150.420421 -33.836567 -135.373897
LeftForeArm 24.094245 -0.000000 99.621911
LeftHand -5.885865 -0.000000 -5.315107
LeftHandThumb1 -26.253704 0.000000 33.147579
RightShoulder -8.015347 58.791890 -49.229486
RightArm 76.590451 47.178374 103.712292
RightForeArm -23.971543 -0.000000 110.020341
RightHand -4.362818 0.000000 15.610876
RightHandThumb1 -24.326973 -0.000000 -32.862282
LeftUpLeg -81.174208 -15.370109 9.033514
LeftLeg 34.040242 -0.000000 -0.000000
LeftFoot -6.139806 26.358102 34.762482
LeftToeBase 115.584465 -0.000000 -0.000000
RightUpLeg -116.089507 -1.051655 13.303835
RightLeg 78.982670 -0.000000 -0.000000
RightFoot -35.519825 -4.482691 9.556957
RightToeBase -41.556458 -0.000000 0.000000
721
root 21.089559 25.424351 8.789048 726.799530 -85.044663 -617.624569
Spine 38.713264 -5.096032 -4.860679
Head -56.249725 4.234097 9.801644
LeftShoulder -3.210964 3.406397 45.005406
LeftArm 150.604849 -33.641451 -135.499367
LeftForeArm 24.222366 -0.000000 99.628932
LeftHand -5.950755 -0.000000 -5.318382
LeftHandThumb1 -26.253704 0.000000 33.147579
RightShoulder -8.059276 58.866224 -49.341435
RightArm 76.535050 47.332597 103.597559
RightForeArm -23.986185 0.000000 110.017851
RightHand -4.372159 0.000000 15.547156
RightHandThumb1 -24.326973 -0.000000 -32.862282
LeftUpLeg -80.971579 -15.551432 9.394564
LeftLeg 33.258626 -0.000000 -0.000000
LeftFoot -5.811426 26.698559 34.410983
LeftToeBase 115.793986 -0.000000 -0.000000
RightUpLeg -115.905047 -1.014251 13.174584
RightLeg 78.465242 -0.000000 -0.000000
RightFoot -35.653737 -4.741979 9.629947
RightToeBase -41.348684 -0.000000 0.000000
722
root 21.047283 25.467681 8.761798 728.417629 -84.897867 -619.061316
Spine 38.672263 -5.206388 -4.714183
Head -56.326323 4.282037 9.851379
LeftShoulder -3.261794 3.596103 45.015128
LeftArm 150.807937 -33.424699 -135.617315
LeftForeArm 24.318571 -0.000000 99.630416
LeftHand -6.008738 -0.000000 -5.425454
LeftHandThumb1 -26.253704 0.000000 33.147579
RightShoulder -8.127231 58.898456 -49.445033
RightArm 76.479359 47.454874 103.468956
RightForeArm -23.968042 0.000000 110.022997
RightHand -4.391363 -0.000000 15.501863
RightHandThumb1 -24.326973 -0.000000 -32.862282
LeftUpLeg -80.800758 -15.764713 9.766546
LeftLeg 32.472657 -0.000000 -0.000000
LeftFoot -5.433946 26.882599 34.016649
LeftToeBase 115.738684 -0.000000 -0.000000
RightUpLeg -115.749004 -1.001203 13.074063
RightLeg 77.904471 -0.000000 -0.000000
RightFoot -35.871564 -5.035439 9.726701
RightToeBase -40.947425 -0.000000 0.000000
723
root 20.991871 25.509483 8.731270 729.771085 -84.745397 -620.319352
Spine 38.780040 -5.284495 -4.600894
Head -56.499075 4.362130 9.930994
LeftShoulder -3.327242 3.760499 45.023886
LeftArm 151.059370 -33.197803 -135.720368
LeftForeArm 24.661160 -0.000000 99.603045
LeftHand -5.919023 0.000000 -5.425016
LeftHandThumb1 -26.253704 0.000000 33.147579
RightShoulder -8.280995 58.969508 -49.605351
RightArm 76.376106 47.633557 103.307305
RightForeArm -23.919644 -0.000000 110.085798
RightHand -4.393368 -0.000000 15.458764
RightHandThumb1 -24.326973 -0.000000 -32.862282
LeftUpLeg -80.460087 -15.963917 9.985889
LeftLeg 31.666558 -0.000000 -0.000000
LeftFoot -4.833348 27.043515 34.002449
LeftToeBase 116.007067 -0.000000 -0.000000
RightUpLeg -115.449496 -1.009266 12.963667
RightLeg 77.285190 -0.000000 -0.000000
RightFoot -36.110323 -5.317439 9.823191
RightToeBase -40.620172 -0.000000 0.000000
724
root 20.939426 25.553590 8.704778 730.591275 -84.535266 -620.938525
Spine 38.751540 -5.412073 -4.505683
Head -56.653608 4.419907 10.028888
LeftShoulder -3.348955 3.853293 45.043092
LeftArm 151.215946 -33.023596 -135.737669
LeftForeArm 24.716423 -0.000000 99.603802
LeftHand -6.022437 -0.000000 -5.264500
LeftHandThumb1 -26.253704 0.000000 33.147579
RightShoulder -8.415671 58.943693 -49.739656
RightArm 76.320841 47.836316 103.155259
RightForeArm -23.891068 -0.000000 110.162209
RightHand -4.463823 0.000000 15.375474
RightHandThumb1 -24.326973 -0.000000 -32.862282
LeftUpLeg -80.216046 -16.213948 10.135914
LeftLeg 30.920809 -0.000000 -0.000000
LeftFoot -4.247253 26.934392 33.981569
LeftToeBase 117.602154 -0.000000 -0.000000
RightUpLeg -115.274908 -1.061771 12.788389
RightLeg 76.667889 -0.000000 -0.000000
RightFoot -36.383205 -5.592604 9.973218
RightToeBase -40.206089 -0.000000 0.000000
725
root 20.880416 25.597455 8.673986 731.842150 -84.329296 -622.017684
Spine 38.770970 -5.491565 -4.355018
Head -56.841483 4.449384 10.174398
LeftShoulder -3.356393 3.993038 45.064036
LeftArm 151.457274 -32.786871 -135.831520
LeftForeArm 24.861650 -0.000000 99.660579
LeftHand -6.051758 -0.000000 -5.508614
LeftHandThumb1 -26.253704 0.000000 33.147579
RightShoulder -8.570354 58.849172 -49.857676
RightArm 76.385089 48.035667 103.066057
RightForeArm -23.864682 -0.000000 110.225188
RightHand -4.478909 -0.000000 15.497794
RightHandThumb1 -24.326973 -0.000000 -32.862282
LeftUpLeg -79.876497 -16.418136 10.197704
LeftLeg 30.226347 -0.000000 -0.000000
LeftFoot -3.420822 26.625757 34.222246
LeftToeBase 117.716221 -0.000000 -0.000000
RightUpLeg -115.017117 -1.109959 12.615131
RightLeg 76.003397 -0.000000 -0.000000
RightFoot -36.689860 -5.764926 10.177194
RightToeBase -39.648709 -0.000000 0.000000
726
root 20.818116 25.638672 8.646867 732.755317 -84.109890 -622.755862
Spine 38.787643 -5.577243 -4.195408
Head -57.040921 4.411544 10.324731
LeftShoulder -3.341997 3.872510 45.100010
LeftArm 151.469073 -32.739952 -135.821068
LeftForeArm 24.954854 0.000000 99.748876
LeftHand -6.115439 -0.000000 -5.504713
LeftHandThumb1 -26.253704 0.000000 33.147579
RightShoulder -8.924272 58.933678 -50.159458
RightArm 76.063821 48.237234 102.680823
RightForeArm -23.747427 0.000000 110.270327
RightHand -4.573350 -0.000000 15.558727
RightHandThumb1 -24.326973 -0.000000 -32.862282
LeftUpLeg -79.496703 -16.650128 10.167629
LeftLeg 29.626979 -0.000000 -0.000000
LeftFoot -2.500923 26.237424 34.473612
LeftToeBase 117.487706 -0.000000 -0.000000
RightUpLeg -114.790879 -1.182213 12.425251
RightLeg 75.401857 -0.000000 -0.000000
RightFoot -36.949485 -5.889262 10.414482
RightToeBase -39.035079 -0.000000 0.000000
727
root 20.757055 25.680352 8.620748 733.461335 -83.862944 -623.244844
Spine 38.747929 -5.736370 -4.078426
Head -57.197418 4.406584 10.474045
LeftShoulder -3.358252 3.891094 45.150710
LeftArm 151.523670 -32.642250 -135.873807
LeftForeArm 25.028277 0.000000 99.869467
LeftHand -6.194179 -0.000000 -5.557954
LeftHandThumb1 -26.253704 0.000000 33.147579
RightShoulder -9.240981 59.152210 -50.422821
RightArm 75.609719 48.405307 102.204551
RightForeArm -23.897618 0.000000 110.302207
RightHand -4.646652 0.000000 15.560944
RightHandThumb1 -24.326973 -0.000000 -32.862282
LeftUpLeg -79.128809 -16.867625 9.975660
LeftLeg 29.206617 -0.000000 -0.000000
LeftFoot -1.717316 25.654424 34.623289
LeftToeBase 117.089200 -0.000000 -0.000000
RightUpLeg -114.635169 -1.260876 12.210132
RightLeg 74.807401 -0.000000 -0.000000
RightFoot -37.166475 -6.176963 10.597083
RightToeBase -38.578476 -0.000000 0.000000
